<?xml version="1.0" encoding="utf-8"?>
<!-- Generator: Adobe Illustrator 23.0.3, SVG Export Plug-In . SVG Version: 6.00 Build 0)  -->
<svg version="1.1" id="Capa_1" xmlns="http://www.w3.org/2000/svg" xmlns:xlink="http://www.w3.org/1999/xlink" x="0px" y="0px"
	 viewBox="0 0 512 512" style="enable-background:new 0 0 512 512;" xml:space="preserve">
<style type="text/css">
	.st0{fill:url(#SVGID_1_);}
	.st1{fill:url(#SVGID_2_);}
	.st2{fill:url(#SVGID_3_);}
	.st3{fill:url(#SVGID_4_);}
	.st4{fill:url(#SVGID_5_);}
	.st5{fill:url(#SVGID_6_);}
	.st6{fill:url(#SVGID_7_);}
	.st7{fill:url(#SVGID_8_);}
	.st8{fill:url(#SVGID_9_);}
	.st9{fill:url(#SVGID_10_);}
	.st10{fill:url(#SVGID_11_);}
	.st11{fill:url(#SVGID_12_);}
	.st12{fill:url(#SVGID_13_);}
	.st13{fill:url(#SVGID_14_);}
	.st14{fill:url(#SVGID_15_);}
	.st15{fill:url(#SVGID_16_);}
	.st16{fill:url(#SVGID_17_);}
	.st17{fill:url(#SVGID_18_);}
	.st18{fill:url(#SVGID_19_);}
	.st19{fill:url(#SVGID_20_);}
	.st20{fill:url(#SVGID_21_);}
	.st21{fill:url(#SVGID_22_);}
	.st22{fill:url(#SVGID_23_);}
	.st23{fill:url(#SVGID_24_);}
	.st24{fill:url(#SVGID_25_);}
	.st25{fill:#9D9AE8;}
	.st26{fill:#FCC69D;}
	.st27{fill:#2D2A2B;}
	.st28{fill:#93CE92;}
	.st29{fill:#253E59;}
	.st30{fill:#DAD0D3;}
	.st31{fill:#FCFCFC;}
	.st32{fill:#F9F9F9;}
	.st33{fill:#ED4D67;}
	.st34{fill:#A30D2A;}
	.st35{fill:url(#SVGID_26_);}
	.st36{fill:url(#SVGID_27_);}
	.st37{fill:url(#SVGID_28_);}
	.st38{fill:url(#SVGID_29_);}
</style>
<path d="M397,267.4c-6.4-19.5-17.7-36.4-31.9-51c-5.9-6.1-8.2-12.4-8.1-20.7c0.3-39.4,0.4-78.8,0.1-118.2
	c-0.2-24.7-15.4-40.8-37.3-40.8c-21.5,0-36.5,16.8-36.6,41.4c-0.2,23.9-0.1,47.7,0,71.6c0,6.4,0.2,11.4-9.2,7.8
	c-13-5-25.5-2.5-36.5,6.4c-2.9,2.4-5.1,5-9,1.4c-13.5-12.4-28.8-12.3-47.2-4.7c0-10.5,0.6-18.8-0.1-27c-1.7-21-17.2-34.6-37.4-33.3
	c-19.9,1.2-32.6,16-32.8,39.8c-0.4,50.8,1.2,101.7-0.5,152.5c-1.3,40,6.4,75.2,38.9,101.5c-19.6,15.5-26.4,39.5-18,61.6
	c4.2,11.1,12.3,19.2,24,19.3c52.4,0.6,104.7,0.8,157.1-0.1c14.5-0.2,24.5-10.3,25.7-24.8c1.9-22.1,5.8-45.9-23.4-56.6
	c23.7-19,46.4-35.3,66.6-54.7C402.9,318.1,405.7,294,397,267.4z M298.6,175.6c0.5-32.1,0.1-64.2,0.2-96.3c0.1-16.9,8.1-26.9,21.1-27
	c13.1-0.1,21.2,9.7,21.4,26.6c0.2,17.6,0,35.2,0,52.8c0,18.1-0.2,36.2,0.1,54.4c0.1,6.9-1.4,9.9-8.7,6.7c-5.8-2.6-12.5-3.8-18.3-1.9
	C298.4,196.3,298.5,187.3,298.6,175.6z M240.6,190.2c1.2-11.2,7.8-17.9,18.9-19.1c9.7-1.1,17.5,3.1,21.2,12.2c4,9.7,4,18.6-7,25.2
	c-7.4,4.5-13.5,11.1-20.4,16.6c-2.7,2.2-4.8,7-8.6,5.3c-3.9-1.7-4.4-6.6-4.4-10.8c0-4.6,0-9.3,0-13.9c0,0,0,0,0.1,0
	C240.5,200.5,240.1,195.3,240.6,190.2z M203,170.7c14.5-0.1,21.4,11,21.4,34.5c0,24.1-6.2,34.7-20.8,35.2
	c-15.1,0.6-22.1-10.6-22-35.4C181.7,180.8,188,170.7,203,170.7z M127,136.1c0.3-12.1,6.9-20.9,20.6-20.2c12.8,0.7,17.7,9.5,18.1,21
	c0.5,13.9,0.1,27.9,0.1,41.8c-0.1,0-0.1,0-0.2,0c0,12.9,0,25.8,0,38.8c0,12.5-5.2,21.7-18.2,22.6c-13.2,0.9-20-7.7-20.3-20.3
	C126.6,191.9,126.3,164,127,136.1z M323.4,433.3c0.2,21.3-3,26.4-19.2,26.5c-47.2,0.3-94.4,0.3-141.6-0.1
	c-14.9-0.1-18-5.5-17.9-26.2c0.1-18.4,4-24,18.4-24.2c23.8-0.3,47.7-0.1,71.6-0.1c22.8,0,45.6-0.2,68.4,0.1
	C319.4,409.5,323.2,414.4,323.4,433.3z M374.9,322c-24.7,27-55.3,46.8-83.8,69.2c-4.2,3.3-8.9,2.3-13.4,2.3
	c-25.4,0.1-50.8,0-76.2,0.1c-39.4,0.1-72.6-31.9-74.4-71.9c-0.4-9.8-0.1-19.7-0.1-29.6c0,0,0,0-0.1,0c0-10.4,0.2-20.7-0.1-31.1
	c-0.2-6.9,1.8-10,9-6.5c0.5,0.2,1,0.4,1.4,0.6c14.6,4.1,26-8.9,36.9-9.1c10.8-0.3,23.4,14.9,36.9,8.8c15.1-6.7,23.1-13.9,27.6,11.4
	c3.3,18.4,25.7,16.3,42.6,16.4c8.2,0,18.7-10.1,23.5-0.7c2.9,5.7-11.4,7.8-15.8,14c-3.3,4.6-7.3,8.7-10.4,13.4
	c-3.2,4.9-5.9,10.8,1.1,14.7c6,3.3,9.5-1,12.2-6c3-5.5,6.5-10.6,12.2-13.8c5.7-3.2,11-8.7,17.1,0c2.6,3.8,7.3,4,11.1,1.1
	c4.1-3.2,3.1-7.5,0.9-11.2c-5.9-9.8-12.1-19.3-18.1-29c-4.3-6.9-9.8-6.1-16.2-3.4c-11.2,4.7-23.1,6.1-35.1,4.2
	c-13.3-2.2-16.4-8.7-8.3-18.8c13.1-16.4,29.3-29.3,48.8-37.5c11.9-5,23.3-4.3,33.6,4.1c25.7,20.9,45.5,45.1,47.5,80.2
	C386,305.1,382.1,314.1,374.9,322z"/>
</svg>
